<svg width="120" height="120" xmlns="http://www.w3.org/2000/svg">
 <!-- Created with Method Draw - http://github.com/duopixel/Method-Draw/ -->

 <g>
  <title>background</title>
  <rect fill="none" id="canvas_background" height="122" width="122" y="-1" x="-1"/>
  <g display="none" overflow="visible" y="0" x="0" height="100%" width="100%" id="canvasGrid">
   <rect fill="url(#gridpattern)" stroke-width="0" y="0" x="0" height="100%" width="100%"/>
  </g>
 </g>
 <g>
  <title>Layer 1</title>
  <metadata transform="matrix(0.01085069392704302,0,0,0.01085069392704302,0,0) ">Created by potrace 1.15, written by Peter Selinger 2001-2017</metadata>
  <g stroke="null" transform="rotate(45.62381362915039 63.47668075561523,57.10004425048829) " id="svg_6">
   <g id="svg_4" fill="#000000" transform="matrix(0.007274739897410859,0,0,-0.008356242085964203,-1499.4602243835893,-862.2593249853832) ">
    <path stroke="null" id="svg_5" d="m215770.213745,-103641.752167c-166,-53 -386,-249 -543,-482c-83,-123 -238,-429 -314,-622c-167,-425 -246,-822 -258,-1307c-9,-350 13,-649 88,-1209c39,-293 40,-305 22,-321c-10,-9 -112,-96 -228,-192c-829,-692 -1259,-1160 -1574,-1715c-183,-323 -306,-697 -352,-1068c-16,-126 -16,-417 0,-555c44,-391 178,-789 374,-1115c138,-230 375,-500 587,-669c400,-318 859,-520 1292,-567c127,-14 488,-5 608,14c47,8 87,13 88,11c2,-1 42,-285 89,-631l85,-628l2,-235c1,-249 -5,-311 -51,-475c-106,-384 -378,-636 -766,-710c-103,-20 -326,-19 -439,0c-191,34 -347,104 -443,199l-60,60l105,8c315,25 509,136 615,351c52,106 68,196 62,352c-9,227 -71,380 -212,520c-89,89 -157,133 -267,173c-66,24 -86,27 -213,27c-111,0 -151,-4 -195,-19c-242,-83 -419,-260 -499,-501c-43,-128 -55,-219 -48,-360c21,-408 258,-772 627,-963c111,-58 213,-94 354,-124c132,-28 450,-31 590,-5c411,78 705,256 893,543c202,308 250,656 169,1239c-86,627 -167,1237 -164,1239c2,2 39,15 83,30c298,105 598,308 790,537c313,373 455,839 416,1366c-23,312 -79,530 -197,768c-113,229 -270,418 -469,568c-101,76 -308,183 -430,222c-183,60 -417,91 -582,79c-91,-6 -92,-6 -97,17c-3,13 -22,146 -41,294c-20,149 -58,436 -86,640l-50,370l28,24c91,77 389,360 514,487c506,518 752,1038 834,1764c57,512 60,849 9,1215c-68,493 -208,904 -401,1177c-133,189 -202,225 -345,179zm284,-1129c100,-44 172,-142 204,-279c19,-82 21,-275 4,-388c-40,-274 -185,-663 -344,-925c-147,-240 -434,-586 -662,-795c-164,-151 -264,-238 -268,-234c-4,4 -25,147 -46,312c-51,406 -25,763 84,1139c132,451 309,792 526,1008c108,107 171,149 270,177c60,17 173,10 232,-15zm-1043,-4513l77,-577l-56,-17c-229,-71 -507,-257 -672,-449c-251,-293 -390,-635 -405,-996c-15,-383 122,-753 372,-1006c143,-146 306,-238 477,-272c71,-14 79,-14 102,2c30,19 34,56 10,81c-9,9 -44,30 -78,47c-249,125 -411,349 -462,641c-73,415 180,878 579,1062c67,31 234,82 242,73c1,-1 77,-563 168,-1248c113,-848 162,-1247 155,-1251c-6,-4 -56,-14 -112,-23c-284,-43 -581,-46 -780,-6c-408,81 -848,336 -1099,639c-305,366 -448,745 -448,1183c0,237 31,425 106,653c139,424 366,769 795,1208c265,272 942,878 949,849c2,-9 38,-276 80,-593zm596,-1415c166,-32 355,-114 487,-214c95,-72 235,-224 291,-317c135,-225 184,-429 174,-728c-12,-391 -132,-688 -367,-909c-107,-101 -313,-226 -411,-251l-25,-6l-27,203c-15,112 -54,401 -87,643c-173,1284 -210,1562 -210,1582c0,21 3,22 48,17c26,-3 83,-12 127,-20z"/>
   </g>
  </g>
  <text transform="rotate(-49.3852653503418 28.192850112915064,57.435802459716804) " xml:space="preserve" text-anchor="start" font-family="'Times New Roman', Times, serif" font-size="24" id="svg_7" y="65.732872" x="2.26471" stroke-width="0" stroke="#000" fill="#000000">OCA</text>
 </g>
</svg>